<mxfile host="app.diagrams.net" modified="2023-06-06T21:05:39.590Z" agent="Mozilla/5.0 (Macintosh; Intel Mac OS X 10_15_7) AppleWebKit/537.36 (KHTML, like Gecko) Chrome/113.0.0.0 Safari/537.36" etag="FhIopYPZ9SWsdOyLaHEb" version="21.3.6" type="device">
  <diagram id="C5RBs43oDa-KdzZeNtuy" name="Page-1">
    <mxGraphModel dx="1955" dy="1827" grid="1" gridSize="10" guides="1" tooltips="1" connect="1" arrows="1" fold="1" page="1" pageScale="1" pageWidth="827" pageHeight="1169" math="0" shadow="0">
      <root>
        <mxCell id="WIyWlLk6GJQsqaUBKTNV-0" />
        <mxCell id="WIyWlLk6GJQsqaUBKTNV-1" parent="WIyWlLk6GJQsqaUBKTNV-0" />
        <mxCell id="a4OTLUtItuGeTME4cSqo-0" value="Dashboard" style="rounded=0;whiteSpace=wrap;html=1;fontSize=16;" parent="WIyWlLk6GJQsqaUBKTNV-1" vertex="1">
          <mxGeometry x="607.3" y="65" width="160" height="85" as="geometry" />
        </mxCell>
        <mxCell id="a4OTLUtItuGeTME4cSqo-6" value="" style="edgeStyle=none;curved=1;rounded=0;orthogonalLoop=1;jettySize=auto;html=1;fontSize=12;startSize=8;endSize=8;" parent="WIyWlLk6GJQsqaUBKTNV-1" source="a4OTLUtItuGeTME4cSqo-1" target="a4OTLUtItuGeTME4cSqo-5" edge="1">
          <mxGeometry relative="1" as="geometry" />
        </mxCell>
        <mxCell id="a4OTLUtItuGeTME4cSqo-7" value="" style="edgeStyle=none;curved=1;rounded=0;orthogonalLoop=1;jettySize=auto;html=1;fontSize=12;startSize=8;endSize=8;" parent="WIyWlLk6GJQsqaUBKTNV-1" source="a4OTLUtItuGeTME4cSqo-1" target="a4OTLUtItuGeTME4cSqo-5" edge="1">
          <mxGeometry relative="1" as="geometry" />
        </mxCell>
        <mxCell id="a4OTLUtItuGeTME4cSqo-8" value="" style="edgeStyle=none;curved=1;rounded=0;orthogonalLoop=1;jettySize=auto;html=1;fontSize=12;startSize=8;endSize=8;" parent="WIyWlLk6GJQsqaUBKTNV-1" source="a4OTLUtItuGeTME4cSqo-1" target="a4OTLUtItuGeTME4cSqo-5" edge="1">
          <mxGeometry relative="1" as="geometry" />
        </mxCell>
        <mxCell id="a4OTLUtItuGeTME4cSqo-9" value="" style="edgeStyle=none;curved=1;rounded=0;orthogonalLoop=1;jettySize=auto;html=1;fontSize=12;startSize=8;endSize=8;" parent="WIyWlLk6GJQsqaUBKTNV-1" source="a4OTLUtItuGeTME4cSqo-1" target="a4OTLUtItuGeTME4cSqo-5" edge="1">
          <mxGeometry relative="1" as="geometry" />
        </mxCell>
        <mxCell id="a4OTLUtItuGeTME4cSqo-10" value="" style="edgeStyle=none;curved=1;rounded=0;orthogonalLoop=1;jettySize=auto;html=1;fontSize=12;startSize=8;endSize=8;" parent="WIyWlLk6GJQsqaUBKTNV-1" source="a4OTLUtItuGeTME4cSqo-1" target="a4OTLUtItuGeTME4cSqo-5" edge="1">
          <mxGeometry relative="1" as="geometry" />
        </mxCell>
        <mxCell id="a4OTLUtItuGeTME4cSqo-11" value="" style="edgeStyle=none;curved=1;rounded=0;orthogonalLoop=1;jettySize=auto;html=1;fontSize=12;startSize=8;endSize=8;" parent="WIyWlLk6GJQsqaUBKTNV-1" source="a4OTLUtItuGeTME4cSqo-1" target="a4OTLUtItuGeTME4cSqo-5" edge="1">
          <mxGeometry relative="1" as="geometry" />
        </mxCell>
        <mxCell id="a4OTLUtItuGeTME4cSqo-12" value="" style="edgeStyle=none;curved=1;rounded=0;orthogonalLoop=1;jettySize=auto;html=1;fontSize=12;startSize=8;endSize=8;" parent="WIyWlLk6GJQsqaUBKTNV-1" source="a4OTLUtItuGeTME4cSqo-1" target="a4OTLUtItuGeTME4cSqo-5" edge="1">
          <mxGeometry relative="1" as="geometry" />
        </mxCell>
        <mxCell id="a4OTLUtItuGeTME4cSqo-13" value="" style="edgeStyle=none;curved=1;rounded=0;orthogonalLoop=1;jettySize=auto;html=1;fontSize=12;startSize=8;endSize=8;" parent="WIyWlLk6GJQsqaUBKTNV-1" source="a4OTLUtItuGeTME4cSqo-1" target="a4OTLUtItuGeTME4cSqo-5" edge="1">
          <mxGeometry relative="1" as="geometry" />
        </mxCell>
        <mxCell id="a4OTLUtItuGeTME4cSqo-15" value="" style="edgeStyle=none;curved=1;rounded=0;orthogonalLoop=1;jettySize=auto;html=1;fontSize=12;startSize=8;endSize=8;" parent="WIyWlLk6GJQsqaUBKTNV-1" source="a4OTLUtItuGeTME4cSqo-1" target="a4OTLUtItuGeTME4cSqo-14" edge="1">
          <mxGeometry relative="1" as="geometry" />
        </mxCell>
        <mxCell id="a4OTLUtItuGeTME4cSqo-17" value="" style="edgeStyle=none;curved=1;rounded=0;orthogonalLoop=1;jettySize=auto;html=1;fontSize=12;startSize=8;endSize=8;" parent="WIyWlLk6GJQsqaUBKTNV-1" source="a4OTLUtItuGeTME4cSqo-1" target="a4OTLUtItuGeTME4cSqo-16" edge="1">
          <mxGeometry relative="1" as="geometry" />
        </mxCell>
        <mxCell id="a4OTLUtItuGeTME4cSqo-19" value="" style="edgeStyle=none;curved=1;rounded=0;orthogonalLoop=1;jettySize=auto;html=1;fontSize=12;startSize=8;endSize=8;" parent="WIyWlLk6GJQsqaUBKTNV-1" source="a4OTLUtItuGeTME4cSqo-1" target="a4OTLUtItuGeTME4cSqo-18" edge="1">
          <mxGeometry relative="1" as="geometry" />
        </mxCell>
        <mxCell id="a4OTLUtItuGeTME4cSqo-21" value="" style="edgeStyle=none;curved=1;rounded=0;orthogonalLoop=1;jettySize=auto;html=1;fontSize=12;startSize=8;endSize=8;" parent="WIyWlLk6GJQsqaUBKTNV-1" source="a4OTLUtItuGeTME4cSqo-1" target="a4OTLUtItuGeTME4cSqo-20" edge="1">
          <mxGeometry relative="1" as="geometry" />
        </mxCell>
        <mxCell id="a4OTLUtItuGeTME4cSqo-49" value="" style="edgeStyle=none;curved=1;rounded=0;orthogonalLoop=1;jettySize=auto;html=1;fontSize=12;startSize=8;endSize=8;" parent="WIyWlLk6GJQsqaUBKTNV-1" source="a4OTLUtItuGeTME4cSqo-1" target="a4OTLUtItuGeTME4cSqo-48" edge="1">
          <mxGeometry relative="1" as="geometry" />
        </mxCell>
        <mxCell id="a4OTLUtItuGeTME4cSqo-1" value="Hooks" style="rounded=0;whiteSpace=wrap;html=1;fontSize=16;" parent="WIyWlLk6GJQsqaUBKTNV-1" vertex="1">
          <mxGeometry x="-20" y="165" width="150" height="65" as="geometry" />
        </mxCell>
        <mxCell id="a4OTLUtItuGeTME4cSqo-26" value="" style="edgeStyle=none;curved=1;rounded=0;orthogonalLoop=1;jettySize=auto;html=1;fontSize=12;startSize=8;endSize=8;" parent="WIyWlLk6GJQsqaUBKTNV-1" source="a4OTLUtItuGeTME4cSqo-2" target="a4OTLUtItuGeTME4cSqo-25" edge="1">
          <mxGeometry relative="1" as="geometry" />
        </mxCell>
        <mxCell id="a4OTLUtItuGeTME4cSqo-28" value="" style="edgeStyle=none;curved=1;rounded=0;orthogonalLoop=1;jettySize=auto;html=1;fontSize=12;startSize=8;endSize=8;" parent="WIyWlLk6GJQsqaUBKTNV-1" source="a4OTLUtItuGeTME4cSqo-2" target="a4OTLUtItuGeTME4cSqo-27" edge="1">
          <mxGeometry relative="1" as="geometry" />
        </mxCell>
        <mxCell id="a4OTLUtItuGeTME4cSqo-30" value="" style="edgeStyle=none;curved=1;rounded=0;orthogonalLoop=1;jettySize=auto;html=1;fontSize=12;startSize=8;endSize=8;" parent="WIyWlLk6GJQsqaUBKTNV-1" source="a4OTLUtItuGeTME4cSqo-2" target="a4OTLUtItuGeTME4cSqo-29" edge="1">
          <mxGeometry relative="1" as="geometry" />
        </mxCell>
        <mxCell id="a4OTLUtItuGeTME4cSqo-32" value="" style="edgeStyle=none;curved=1;rounded=0;orthogonalLoop=1;jettySize=auto;html=1;fontSize=12;startSize=8;endSize=8;" parent="WIyWlLk6GJQsqaUBKTNV-1" source="a4OTLUtItuGeTME4cSqo-2" target="a4OTLUtItuGeTME4cSqo-31" edge="1">
          <mxGeometry relative="1" as="geometry" />
        </mxCell>
        <mxCell id="a4OTLUtItuGeTME4cSqo-39" style="edgeStyle=none;curved=1;rounded=0;orthogonalLoop=1;jettySize=auto;html=1;entryX=0.5;entryY=1;entryDx=0;entryDy=0;fontSize=12;startSize=8;endSize=8;" parent="WIyWlLk6GJQsqaUBKTNV-1" source="a4OTLUtItuGeTME4cSqo-2" target="a4OTLUtItuGeTME4cSqo-0" edge="1">
          <mxGeometry relative="1" as="geometry" />
        </mxCell>
        <mxCell id="a4OTLUtItuGeTME4cSqo-45" value="" style="edgeStyle=none;curved=1;rounded=0;orthogonalLoop=1;jettySize=auto;html=1;fontSize=12;startSize=8;endSize=8;" parent="WIyWlLk6GJQsqaUBKTNV-1" source="a4OTLUtItuGeTME4cSqo-2" target="a4OTLUtItuGeTME4cSqo-44" edge="1">
          <mxGeometry relative="1" as="geometry" />
        </mxCell>
        <mxCell id="a4OTLUtItuGeTME4cSqo-2" value="Views" style="rounded=0;whiteSpace=wrap;html=1;fontSize=16;" parent="WIyWlLk6GJQsqaUBKTNV-1" vertex="1">
          <mxGeometry x="657.3" y="470" width="150" height="85" as="geometry" />
        </mxCell>
        <mxCell id="a4OTLUtItuGeTME4cSqo-41" style="edgeStyle=none;curved=1;rounded=0;orthogonalLoop=1;jettySize=auto;html=1;exitX=0;exitY=0.5;exitDx=0;exitDy=0;fontSize=12;startSize=8;endSize=8;" parent="WIyWlLk6GJQsqaUBKTNV-1" source="a4OTLUtItuGeTME4cSqo-3" target="a4OTLUtItuGeTME4cSqo-1" edge="1">
          <mxGeometry relative="1" as="geometry" />
        </mxCell>
        <mxCell id="1RcgN7MGZJYINN4Vdq3p-1" style="edgeStyle=none;curved=1;rounded=0;orthogonalLoop=1;jettySize=auto;html=1;fontSize=12;startSize=8;endSize=8;" parent="WIyWlLk6GJQsqaUBKTNV-1" source="a4OTLUtItuGeTME4cSqo-3" target="a4OTLUtItuGeTME4cSqo-25" edge="1">
          <mxGeometry relative="1" as="geometry" />
        </mxCell>
        <mxCell id="1RcgN7MGZJYINN4Vdq3p-2" style="edgeStyle=none;curved=1;rounded=0;orthogonalLoop=1;jettySize=auto;html=1;entryX=0.25;entryY=0;entryDx=0;entryDy=0;fontSize=12;startSize=8;endSize=8;" parent="WIyWlLk6GJQsqaUBKTNV-1" source="a4OTLUtItuGeTME4cSqo-3" target="a4OTLUtItuGeTME4cSqo-27" edge="1">
          <mxGeometry relative="1" as="geometry" />
        </mxCell>
        <mxCell id="a4OTLUtItuGeTME4cSqo-3" value="usePlaylist" style="rhombus;whiteSpace=wrap;html=1;fontSize=16;rounded=0;" parent="WIyWlLk6GJQsqaUBKTNV-1" vertex="1">
          <mxGeometry x="360" y="190" width="80" height="70" as="geometry" />
        </mxCell>
        <mxCell id="a4OTLUtItuGeTME4cSqo-36" style="edgeStyle=none;curved=1;rounded=0;orthogonalLoop=1;jettySize=auto;html=1;entryX=0;entryY=0.75;entryDx=0;entryDy=0;fontSize=12;startSize=8;endSize=8;" parent="WIyWlLk6GJQsqaUBKTNV-1" source="a4OTLUtItuGeTME4cSqo-5" target="a4OTLUtItuGeTME4cSqo-0" edge="1">
          <mxGeometry relative="1" as="geometry" />
        </mxCell>
        <mxCell id="a4OTLUtItuGeTME4cSqo-5" value="usePlayback" style="rhombus;whiteSpace=wrap;html=1;fontSize=16;rounded=0;" parent="WIyWlLk6GJQsqaUBKTNV-1" vertex="1">
          <mxGeometry x="250" y="100" width="80" height="80" as="geometry" />
        </mxCell>
        <mxCell id="a4OTLUtItuGeTME4cSqo-34" style="edgeStyle=none;curved=1;rounded=0;orthogonalLoop=1;jettySize=auto;html=1;entryX=0;entryY=0.5;entryDx=0;entryDy=0;fontSize=12;startSize=8;endSize=8;" parent="WIyWlLk6GJQsqaUBKTNV-1" source="a4OTLUtItuGeTME4cSqo-14" target="a4OTLUtItuGeTME4cSqo-31" edge="1">
          <mxGeometry relative="1" as="geometry" />
        </mxCell>
        <mxCell id="a4OTLUtItuGeTME4cSqo-14" value="useTracks" style="rhombus;whiteSpace=wrap;html=1;fontSize=16;rounded=0;" parent="WIyWlLk6GJQsqaUBKTNV-1" vertex="1">
          <mxGeometry x="150" y="280" width="80" height="80" as="geometry" />
        </mxCell>
        <mxCell id="a4OTLUtItuGeTME4cSqo-33" style="edgeStyle=none;curved=1;rounded=0;orthogonalLoop=1;jettySize=auto;html=1;entryX=0;entryY=0.5;entryDx=0;entryDy=0;fontSize=12;startSize=8;endSize=8;" parent="WIyWlLk6GJQsqaUBKTNV-1" source="a4OTLUtItuGeTME4cSqo-16" target="a4OTLUtItuGeTME4cSqo-25" edge="1">
          <mxGeometry relative="1" as="geometry" />
        </mxCell>
        <mxCell id="a4OTLUtItuGeTME4cSqo-43" style="edgeStyle=none;curved=1;rounded=0;orthogonalLoop=1;jettySize=auto;html=1;entryX=0;entryY=0.5;entryDx=0;entryDy=0;fontSize=12;startSize=8;endSize=8;" parent="WIyWlLk6GJQsqaUBKTNV-1" source="a4OTLUtItuGeTME4cSqo-16" target="a4OTLUtItuGeTME4cSqo-29" edge="1">
          <mxGeometry relative="1" as="geometry" />
        </mxCell>
        <mxCell id="a4OTLUtItuGeTME4cSqo-16" value="useSearch" style="rhombus;whiteSpace=wrap;html=1;fontSize=16;rounded=0;" parent="WIyWlLk6GJQsqaUBKTNV-1" vertex="1">
          <mxGeometry x="200" y="225" width="80" height="80" as="geometry" />
        </mxCell>
        <mxCell id="a4OTLUtItuGeTME4cSqo-23" style="edgeStyle=none;curved=1;rounded=0;orthogonalLoop=1;jettySize=auto;html=1;entryX=0;entryY=0.25;entryDx=0;entryDy=0;fontSize=12;startSize=8;endSize=8;" parent="WIyWlLk6GJQsqaUBKTNV-1" source="a4OTLUtItuGeTME4cSqo-18" target="a4OTLUtItuGeTME4cSqo-0" edge="1">
          <mxGeometry relative="1" as="geometry" />
        </mxCell>
        <mxCell id="a4OTLUtItuGeTME4cSqo-18" value="useAuth" style="rhombus;whiteSpace=wrap;html=1;fontSize=16;rounded=0;" parent="WIyWlLk6GJQsqaUBKTNV-1" vertex="1">
          <mxGeometry x="210" y="-50" width="80" height="80" as="geometry" />
        </mxCell>
        <mxCell id="a4OTLUtItuGeTME4cSqo-24" style="edgeStyle=none;curved=1;rounded=0;orthogonalLoop=1;jettySize=auto;html=1;entryX=0;entryY=0.5;entryDx=0;entryDy=0;fontSize=12;startSize=8;endSize=8;" parent="WIyWlLk6GJQsqaUBKTNV-1" source="a4OTLUtItuGeTME4cSqo-20" target="a4OTLUtItuGeTME4cSqo-0" edge="1">
          <mxGeometry relative="1" as="geometry" />
        </mxCell>
        <mxCell id="a4OTLUtItuGeTME4cSqo-20" value="useHistory" style="rhombus;whiteSpace=wrap;html=1;fontSize=16;rounded=0;" parent="WIyWlLk6GJQsqaUBKTNV-1" vertex="1">
          <mxGeometry x="260" y="20" width="80" height="80" as="geometry" />
        </mxCell>
        <mxCell id="a4OTLUtItuGeTME4cSqo-25" value="Playlist" style="whiteSpace=wrap;html=1;fontSize=16;rounded=0;" parent="WIyWlLk6GJQsqaUBKTNV-1" vertex="1">
          <mxGeometry x="467.3" y="420" width="90" height="50" as="geometry" />
        </mxCell>
        <mxCell id="a4OTLUtItuGeTME4cSqo-27" value="Album" style="whiteSpace=wrap;html=1;fontSize=16;rounded=0;" parent="WIyWlLk6GJQsqaUBKTNV-1" vertex="1">
          <mxGeometry x="507.3" y="350" width="100" height="65" as="geometry" />
        </mxCell>
        <mxCell id="a4OTLUtItuGeTME4cSqo-29" value="Search" style="whiteSpace=wrap;html=1;fontSize=16;rounded=0;" parent="WIyWlLk6GJQsqaUBKTNV-1" vertex="1">
          <mxGeometry x="467.3" y="505" width="100" height="50" as="geometry" />
        </mxCell>
        <mxCell id="a4OTLUtItuGeTME4cSqo-31" value="SavedSongs" style="whiteSpace=wrap;html=1;fontSize=16;rounded=0;" parent="WIyWlLk6GJQsqaUBKTNV-1" vertex="1">
          <mxGeometry x="487.3" y="575" width="100" height="50" as="geometry" />
        </mxCell>
        <mxCell id="a4OTLUtItuGeTME4cSqo-44" value="Home" style="whiteSpace=wrap;html=1;fontSize=16;rounded=0;" parent="WIyWlLk6GJQsqaUBKTNV-1" vertex="1">
          <mxGeometry x="547.3" y="665" width="100" height="55" as="geometry" />
        </mxCell>
        <mxCell id="1RcgN7MGZJYINN4Vdq3p-3" style="edgeStyle=none;curved=1;rounded=0;orthogonalLoop=1;jettySize=auto;html=1;entryX=0.156;entryY=0.018;entryDx=0;entryDy=0;entryPerimeter=0;fontSize=12;startSize=8;endSize=8;" parent="WIyWlLk6GJQsqaUBKTNV-1" source="a4OTLUtItuGeTME4cSqo-48" target="a4OTLUtItuGeTME4cSqo-0" edge="1">
          <mxGeometry relative="1" as="geometry" />
        </mxCell>
        <mxCell id="a4OTLUtItuGeTME4cSqo-48" value="usePlaylists" style="rhombus;whiteSpace=wrap;html=1;fontSize=16;rounded=0;" parent="WIyWlLk6GJQsqaUBKTNV-1" vertex="1">
          <mxGeometry x="334" y="-90" width="80" height="80" as="geometry" />
        </mxCell>
        <mxCell id="pGoiMWkYPLcY7EDyr4n9-0" value="TrackTable" style="rounded=0;whiteSpace=wrap;html=1;fontSize=16;" parent="WIyWlLk6GJQsqaUBKTNV-1" vertex="1">
          <mxGeometry x="-510" y="30" width="120" height="60" as="geometry" />
        </mxCell>
        <mxCell id="pGoiMWkYPLcY7EDyr4n9-12" style="edgeStyle=none;curved=1;rounded=0;orthogonalLoop=1;jettySize=auto;html=1;entryX=0;entryY=0.5;entryDx=0;entryDy=0;fontSize=12;startSize=8;endSize=8;" parent="WIyWlLk6GJQsqaUBKTNV-1" source="pGoiMWkYPLcY7EDyr4n9-1" target="pGoiMWkYPLcY7EDyr4n9-0" edge="1">
          <mxGeometry relative="1" as="geometry" />
        </mxCell>
        <mxCell id="pGoiMWkYPLcY7EDyr4n9-1" value="Album" style="rounded=0;whiteSpace=wrap;html=1;fontSize=16;" parent="WIyWlLk6GJQsqaUBKTNV-1" vertex="1">
          <mxGeometry x="-740" y="160" width="120" height="60" as="geometry" />
        </mxCell>
        <mxCell id="pGoiMWkYPLcY7EDyr4n9-11" style="edgeStyle=none;curved=1;rounded=0;orthogonalLoop=1;jettySize=auto;html=1;entryX=0.5;entryY=1;entryDx=0;entryDy=0;fontSize=12;startSize=8;endSize=8;" parent="WIyWlLk6GJQsqaUBKTNV-1" source="pGoiMWkYPLcY7EDyr4n9-2" target="pGoiMWkYPLcY7EDyr4n9-0" edge="1">
          <mxGeometry relative="1" as="geometry" />
        </mxCell>
        <mxCell id="pGoiMWkYPLcY7EDyr4n9-2" value="Playlist" style="rounded=0;whiteSpace=wrap;html=1;fontSize=16;" parent="WIyWlLk6GJQsqaUBKTNV-1" vertex="1">
          <mxGeometry x="-510" y="160" width="120" height="60" as="geometry" />
        </mxCell>
        <mxCell id="pGoiMWkYPLcY7EDyr4n9-10" style="edgeStyle=none;curved=1;rounded=0;orthogonalLoop=1;jettySize=auto;html=1;fontSize=12;startSize=8;endSize=8;entryX=1;entryY=0.5;entryDx=0;entryDy=0;" parent="WIyWlLk6GJQsqaUBKTNV-1" source="pGoiMWkYPLcY7EDyr4n9-3" target="pGoiMWkYPLcY7EDyr4n9-0" edge="1">
          <mxGeometry relative="1" as="geometry">
            <mxPoint x="-380" y="90" as="targetPoint" />
          </mxGeometry>
        </mxCell>
        <mxCell id="pGoiMWkYPLcY7EDyr4n9-3" value="LikedSongs" style="rounded=0;whiteSpace=wrap;html=1;fontSize=16;" parent="WIyWlLk6GJQsqaUBKTNV-1" vertex="1">
          <mxGeometry x="-270" y="160" width="120" height="60" as="geometry" />
        </mxCell>
        <mxCell id="pGoiMWkYPLcY7EDyr4n9-7" style="edgeStyle=none;curved=1;rounded=0;orthogonalLoop=1;jettySize=auto;html=1;entryX=0.5;entryY=1;entryDx=0;entryDy=0;fontSize=12;startSize=8;endSize=8;" parent="WIyWlLk6GJQsqaUBKTNV-1" source="pGoiMWkYPLcY7EDyr4n9-4" target="pGoiMWkYPLcY7EDyr4n9-1" edge="1">
          <mxGeometry relative="1" as="geometry" />
        </mxCell>
        <mxCell id="pGoiMWkYPLcY7EDyr4n9-4" value="Row" style="rhombus;whiteSpace=wrap;html=1;fontSize=16;" parent="WIyWlLk6GJQsqaUBKTNV-1" vertex="1">
          <mxGeometry x="-720" y="270" width="80" height="80" as="geometry" />
        </mxCell>
        <mxCell id="pGoiMWkYPLcY7EDyr4n9-8" style="edgeStyle=none;curved=1;rounded=0;orthogonalLoop=1;jettySize=auto;html=1;entryX=0.5;entryY=1;entryDx=0;entryDy=0;fontSize=12;startSize=8;endSize=8;" parent="WIyWlLk6GJQsqaUBKTNV-1" source="pGoiMWkYPLcY7EDyr4n9-5" target="pGoiMWkYPLcY7EDyr4n9-2" edge="1">
          <mxGeometry relative="1" as="geometry" />
        </mxCell>
        <mxCell id="pGoiMWkYPLcY7EDyr4n9-5" value="Row" style="rhombus;whiteSpace=wrap;html=1;fontSize=16;" parent="WIyWlLk6GJQsqaUBKTNV-1" vertex="1">
          <mxGeometry x="-490" y="280" width="80" height="80" as="geometry" />
        </mxCell>
        <mxCell id="pGoiMWkYPLcY7EDyr4n9-9" style="edgeStyle=none;curved=1;rounded=0;orthogonalLoop=1;jettySize=auto;html=1;entryX=0.5;entryY=1;entryDx=0;entryDy=0;fontSize=12;startSize=8;endSize=8;" parent="WIyWlLk6GJQsqaUBKTNV-1" source="pGoiMWkYPLcY7EDyr4n9-6" target="pGoiMWkYPLcY7EDyr4n9-3" edge="1">
          <mxGeometry relative="1" as="geometry" />
        </mxCell>
        <mxCell id="pGoiMWkYPLcY7EDyr4n9-6" value="Row" style="rhombus;whiteSpace=wrap;html=1;fontSize=16;" parent="WIyWlLk6GJQsqaUBKTNV-1" vertex="1">
          <mxGeometry x="-250" y="280" width="80" height="80" as="geometry" />
        </mxCell>
        <mxCell id="k38mlBq3uHJHGnrPjmp4-1" style="edgeStyle=none;curved=1;rounded=0;orthogonalLoop=1;jettySize=auto;html=1;fontSize=12;startSize=8;endSize=8;" edge="1" parent="WIyWlLk6GJQsqaUBKTNV-1" source="k38mlBq3uHJHGnrPjmp4-0" target="k38mlBq3uHJHGnrPjmp4-2">
          <mxGeometry relative="1" as="geometry">
            <mxPoint x="-400" y="690" as="targetPoint" />
          </mxGeometry>
        </mxCell>
        <mxCell id="k38mlBq3uHJHGnrPjmp4-0" value="Authorization" style="ellipse;whiteSpace=wrap;html=1;fontSize=16;" vertex="1" parent="WIyWlLk6GJQsqaUBKTNV-1">
          <mxGeometry x="-460" y="470" width="120" height="80" as="geometry" />
        </mxCell>
        <mxCell id="k38mlBq3uHJHGnrPjmp4-2" value="Handle mongo requests from a server file" style="ellipse;whiteSpace=wrap;html=1;aspect=fixed;fontSize=16;" vertex="1" parent="WIyWlLk6GJQsqaUBKTNV-1">
          <mxGeometry x="-730" y="640" width="120" height="120" as="geometry" />
        </mxCell>
        <mxCell id="k38mlBq3uHJHGnrPjmp4-4" style="edgeStyle=none;curved=1;rounded=0;orthogonalLoop=1;jettySize=auto;html=1;entryX=0.5;entryY=1;entryDx=0;entryDy=0;fontSize=12;startSize=8;endSize=8;" edge="1" parent="WIyWlLk6GJQsqaUBKTNV-1" source="k38mlBq3uHJHGnrPjmp4-3" target="k38mlBq3uHJHGnrPjmp4-0">
          <mxGeometry relative="1" as="geometry" />
        </mxCell>
        <mxCell id="k38mlBq3uHJHGnrPjmp4-5" style="edgeStyle=none;curved=1;rounded=0;orthogonalLoop=1;jettySize=auto;html=1;fontSize=12;startSize=8;endSize=8;" edge="1" parent="WIyWlLk6GJQsqaUBKTNV-1" source="k38mlBq3uHJHGnrPjmp4-6" target="k38mlBq3uHJHGnrPjmp4-2">
          <mxGeometry relative="1" as="geometry" />
        </mxCell>
        <mxCell id="k38mlBq3uHJHGnrPjmp4-3" value="User Auth stored in Mongodb" style="ellipse;whiteSpace=wrap;html=1;aspect=fixed;fontSize=16;" vertex="1" parent="WIyWlLk6GJQsqaUBKTNV-1">
          <mxGeometry x="-453" y="650" width="120" height="120" as="geometry" />
        </mxCell>
        <mxCell id="k38mlBq3uHJHGnrPjmp4-7" value="" style="edgeStyle=none;curved=1;rounded=0;orthogonalLoop=1;jettySize=auto;html=1;fontSize=12;startSize=8;endSize=8;" edge="1" parent="WIyWlLk6GJQsqaUBKTNV-1" source="k38mlBq3uHJHGnrPjmp4-3" target="k38mlBq3uHJHGnrPjmp4-6">
          <mxGeometry relative="1" as="geometry">
            <mxPoint x="-453" y="708" as="sourcePoint" />
            <mxPoint x="-610" y="702" as="targetPoint" />
          </mxGeometry>
        </mxCell>
        <mxCell id="k38mlBq3uHJHGnrPjmp4-6" value="Server makes request to Mongodb" style="text;html=1;strokeColor=none;fillColor=none;align=center;verticalAlign=middle;whiteSpace=wrap;rounded=0;fontSize=16;" vertex="1" parent="WIyWlLk6GJQsqaUBKTNV-1">
          <mxGeometry x="-590" y="690" width="130" height="30" as="geometry" />
        </mxCell>
      </root>
    </mxGraphModel>
  </diagram>
</mxfile>
